<svg width="245" height="299" viewBox="0 0 245 299" fill="none" xmlns="http://www.w3.org/2000/svg">
<path d="M167.971 196.258C167.971 221.347 167.971 263.229 122.543 263.229C77.1145 263.229 77.1145 221.347 77.1145 196.258C77.1145 171.169 97.4534 150.83 122.543 150.83C147.632 150.83 167.971 171.169 167.971 196.258Z" fill="#262626"/>
<path d="M122.259 151.064C90.0377 151.064 39.3642 180.881 18.0551 195.79L29.0609 214.055C96.2665 225.295 119.215 195.79 119.215 195.79C119.215 195.79 124.366 167.3 122.259 151.064Z" fill="#262626"/>
<circle r="12.6449" transform="matrix(-0.866025 0.5 0.5 0.866025 18.4214 207.989)" fill="#262626"/>
<circle r="5.15165" transform="matrix(-0.866025 0.5 0.5 0.866025 7.0371 209.852)" fill="#262626"/>
<circle r="3.74665" transform="matrix(-0.866025 0.5 0.5 0.866025 7.76279 201.705)" fill="#262626"/>
<circle r="2.34166" transform="matrix(-0.866025 0.5 0.5 0.866025 7.76246 201.705)" fill="#FFB8B8"/>
<circle r="3.74665" transform="matrix(-0.866025 0.5 0.5 0.866025 18.2374 218.911)" fill="#262626"/>
<circle r="5.15165" transform="matrix(-0.866025 0.5 0.5 0.866025 10.7836 216.62)" fill="#262626"/>
<circle r="7.10248" transform="matrix(-0.866025 0.5 0.5 0.866025 18.6248 207.365)" fill="#FFB8B8"/>
<circle r="3.05072" transform="matrix(-0.866025 0.5 0.5 0.866025 6.86966 209.792)" fill="#FFB8B8"/>
<circle r="3.27987" transform="matrix(-0.866025 0.5 0.5 0.866025 10.7051 216.618)" fill="#FFB8B8"/>
<circle r="2.34166" transform="matrix(-0.866025 0.5 0.5 0.866025 18.237 218.911)" fill="#FFB8B8"/>
<path d="M122.741 151.064C154.962 151.064 205.636 180.881 226.945 195.79L215.939 214.055C148.733 225.295 125.785 195.79 125.785 195.79C125.785 195.79 120.633 167.3 122.741 151.064Z" fill="#262626"/>
<circle cx="226.579" cy="207.989" r="12.6449" transform="rotate(30 226.579 207.989)" fill="#262626"/>
<circle cx="237.963" cy="209.852" r="5.15165" transform="rotate(30 237.963 209.852)" fill="#262626"/>
<circle cx="237.237" cy="201.705" r="3.74665" transform="rotate(30 237.237 201.705)" fill="#262626"/>
<circle cx="237.237" cy="201.705" r="2.34166" transform="rotate(30 237.237 201.705)" fill="#FFB8B8"/>
<circle cx="226.762" cy="218.911" r="3.74665" transform="rotate(30 226.762 218.911)" fill="#262626"/>
<circle cx="234.216" cy="216.62" r="5.15165" transform="rotate(30 234.216 216.62)" fill="#262626"/>
<circle cx="226.375" cy="207.365" r="7.10248" transform="rotate(30 226.375 207.365)" fill="#FFB8B8"/>
<circle cx="238.13" cy="209.792" r="3.05072" transform="rotate(30 238.13 209.792)" fill="#FFB8B8"/>
<circle cx="234.295" cy="216.618" r="3.27987" transform="rotate(30 234.295 216.618)" fill="#FFB8B8"/>
<circle cx="226.763" cy="218.911" r="2.34166" transform="rotate(30 226.763 218.911)" fill="#FFB8B8"/>
<path d="M128.929 161.861L132.153 182.688C132.44 184.539 131.732 189.15 128.029 189.724C123.401 190.44 122.329 186.578 121.971 184.264L118.747 163.437C112.443 122.709 135.13 102.223 161.52 96.8663C186.102 91.8764 186.148 73.5178 186.148 67.8978C186.148 54.5937 176.234 45.4309 163.155 44.1434C150.076 42.8559 140.406 36.4476 140.406 25.5269C140.406 13.5845 150.429 6.6551 161.52 6.65508C186.148 6.65505 208.429 23.5736 211.124 57.1392C213.82 90.7048 189.345 108.943 173.19 112.871C162.457 115.48 123.771 128.538 128.929 161.861Z" fill="#262626"/>
<path fill-rule="evenodd" clip-rule="evenodd" d="M74.2306 216.447L36.5299 241.654L60.1806 240.332L74.3399 230.24L74.2306 216.447Z" fill="#A86400"/>
<path fill-rule="evenodd" clip-rule="evenodd" d="M170.707 216.447L208.283 241.654L185.225 240.098L170.473 230.24L170.707 216.447Z" fill="#A86400"/>
<path fill-rule="evenodd" clip-rule="evenodd" d="M170.671 298.074H74.0106L68.611 261.833L74.0106 216.396L107.483 219.023H137.456L170.671 216.396L176.093 285.142L170.671 298.074Z" fill="#D47B00"/>
<path fill-rule="evenodd" clip-rule="evenodd" d="M146.526 286.936H150.246V275.798H146.526V286.936Z" fill="#523300"/>
<path fill-rule="evenodd" clip-rule="evenodd" d="M157.688 286.936H161.408V275.798H157.688V286.936Z" fill="#523300"/>
<path fill-rule="evenodd" clip-rule="evenodd" d="M144.665 294.361H163.269V290.648H144.665V294.361Z" fill="#523300"/>
<path fill-rule="evenodd" clip-rule="evenodd" d="M148.5 271.073L145 277.073H152L148.5 271.073Z" fill="#523300"/>
<path fill-rule="evenodd" clip-rule="evenodd" d="M159.5 271.073L156 277.073H163L159.5 271.073Z" fill="#523300"/>
<path fill-rule="evenodd" clip-rule="evenodd" d="M130.886 238.672H113.795C112.351 238.672 111.178 239.918 111.178 241.457C111.178 242.995 112.351 244.241 113.795 244.241H130.886C132.332 244.241 133.503 242.995 133.503 241.457C133.503 239.918 132.332 238.672 130.886 238.672" fill="#262626"/>
<path d="M106.48 183.83C104.947 183.83 103.653 183.571 102.598 183.053C101.563 182.516 100.697 181.898 100 181.202L101.583 178.992C102.16 179.529 102.807 180.007 103.524 180.425C104.241 180.823 105.077 181.023 106.032 181.023C107.107 181.023 107.983 180.704 108.66 180.067C109.357 179.43 109.706 178.534 109.706 177.379C109.706 176.244 109.387 175.368 108.75 174.751C108.113 174.134 107.267 173.825 106.212 173.825C105.594 173.825 105.077 173.915 104.659 174.094C104.241 174.254 103.743 174.522 103.165 174.901L101.523 173.855L102.09 164.478H112.244V167.375H105.077L104.689 171.974C105.087 171.775 105.475 171.626 105.853 171.526C106.251 171.407 106.699 171.347 107.197 171.347C108.013 171.347 108.78 171.466 109.496 171.705C110.233 171.944 110.87 172.312 111.408 172.81C111.945 173.288 112.373 173.905 112.692 174.662C113.01 175.398 113.17 176.274 113.17 177.29C113.17 178.325 112.98 179.251 112.602 180.067C112.244 180.883 111.756 181.57 111.139 182.127C110.522 182.685 109.805 183.113 108.989 183.412C108.192 183.69 107.356 183.83 106.48 183.83Z" fill="white"/>
<path d="M137.55 183.83C135.559 183.83 133.986 182.984 132.831 181.291C131.676 179.579 131.099 177.11 131.099 173.885C131.099 170.66 131.676 168.231 132.831 166.599C133.986 164.946 135.559 164.12 137.55 164.12C139.54 164.12 141.113 164.946 142.268 166.599C143.423 168.251 144 170.68 144 173.885C144 177.11 143.423 179.579 142.268 181.291C141.113 182.984 139.54 183.83 137.55 183.83ZM137.55 181.142C138.007 181.142 138.426 181.023 138.804 180.784C139.202 180.525 139.54 180.107 139.819 179.529C140.098 178.952 140.317 178.205 140.476 177.29C140.635 176.374 140.715 175.239 140.715 173.885C140.715 172.551 140.635 171.436 140.476 170.541C140.317 169.625 140.098 168.888 139.819 168.331C139.54 167.773 139.202 167.385 138.804 167.166C138.426 166.927 138.007 166.808 137.55 166.808C137.092 166.808 136.664 166.927 136.265 167.166C135.887 167.385 135.559 167.773 135.28 168.331C135.001 168.888 134.782 169.625 134.623 170.541C134.464 171.436 134.384 172.551 134.384 173.885C134.384 175.239 134.464 176.374 134.623 177.29C134.782 178.205 135.001 178.952 135.28 179.529C135.559 180.107 135.887 180.525 136.265 180.784C136.664 181.023 137.092 181.142 137.55 181.142Z" fill="white"/>
<path d="M122.239 183.83C120.248 183.83 118.675 182.984 117.521 181.291C116.366 179.579 115.789 177.11 115.789 173.885C115.789 170.66 116.366 168.231 117.521 166.599C118.675 164.946 120.248 164.12 122.239 164.12C124.23 164.12 125.803 164.946 126.957 166.599C128.112 168.251 128.689 170.68 128.689 173.885C128.689 177.11 128.112 179.579 126.957 181.291C125.803 182.984 124.23 183.83 122.239 183.83ZM122.239 181.142C122.697 181.142 123.115 181.023 123.493 180.784C123.891 180.525 124.23 180.107 124.509 179.529C124.787 178.952 125.006 178.205 125.166 177.29C125.325 176.374 125.404 175.239 125.404 173.885C125.404 172.551 125.325 171.436 125.166 170.541C125.006 169.625 124.787 168.888 124.509 168.331C124.23 167.773 123.891 167.385 123.493 167.166C123.115 166.927 122.697 166.808 122.239 166.808C121.781 166.808 121.353 166.927 120.955 167.166C120.577 167.385 120.248 167.773 119.969 168.331C119.691 168.888 119.472 169.625 119.312 170.541C119.153 171.436 119.073 172.551 119.073 173.885C119.073 175.239 119.153 176.374 119.312 177.29C119.472 178.205 119.691 178.952 119.969 179.529C120.248 180.107 120.577 180.525 120.955 180.784C121.353 181.023 121.781 181.142 122.239 181.142Z" fill="#FFB8B8"/>
</svg>
