<svg width="26" height="32" viewBox="0 0 26 32" fill="none" xmlns="http://www.w3.org/2000/svg">
    <path d="M3.68803 13.8413C2.45868 14.4465 0 16.7464 0 21.104C0 26.7399 5.15864 31.998 12.9081 31.998C20.6576 31.998 24.6869 26.6636 25.8162 21.104C26.5538 17.4727 24.8942 14.7492 23.9722 13.8413C24.2795 14.4466 24.341 15.657 22.1282 15.657C19.3621 15.657 22.1282 12.0256 20.2841 7.48647C18.4401 2.94731 11.5738 -0.994183 11.9861 0.223805C12.9081 2.94736 12.9081 3.37488 12.9081 3.85521C12.9081 5.67088 11.0641 8.39435 10.1421 6.57867C9.31742 4.9547 8.85126 8.39431 7.37605 12.0256C5.98553 15.4485 8.50836 17.4727 5.53204 17.4727C3.68803 17.4727 3.38069 14.7491 3.68803 13.8413Z" fill="#DE2E2E"/>
    <path d="M6.45398 22.0113C5.54733 22.1763 4.60988 22.0112 3.68788 20.1955C0.475172 26.1547 8.08846 31.9974 12.8426 31.9974C16.2294 31.9974 20.9808 28.5938 21.9975 23.5319C22.5206 20.9271 21.3436 18.9735 20.6896 18.3223C20.9076 18.7564 20.8484 20.1747 19.3818 19.6247C15.9087 18.3223 18.2831 15.6564 17.6895 11.5428C17.1893 8.07626 14.9681 6.59742 15.3151 7.45153C16.7903 11.0829 10.8947 8.43384 9.97272 13.8808C9.66957 15.6717 9.37912 21.4789 6.45398 22.0113Z" fill="#FFAA33"/>
    <path d="M3.09339 9.96671C3.3767 9.82723 3.62687 9.66738 3.8473 9.49389C3.81622 9.65155 3.77919 9.80791 3.73557 9.96145C3.49157 10.8202 3.06771 11.5213 2.37828 11.9271C2.34845 11.6727 2.34097 11.4003 2.37253 11.1376C2.43898 10.5844 2.65727 10.1814 3.09339 9.96671Z" stroke="#DE2E2E" stroke-width="1.48263"/>
    <path d="M9.22009 24.7351C7.37607 25.643 7.33325 22.8471 6.41125 25.5706C4.98156 29.7937 9.48641 31.9998 12.9408 31.9998C19.1747 31.9998 20.064 23.8172 17.5181 25.643C15.6886 26.9551 18.1611 21.9482 17.6896 22.0638C12.9408 23.2277 15.0666 14.3807 14.7217 14.4656C11.0337 15.3737 11.0641 23.8273 9.22009 24.7351Z" fill="#FFD799"/>
</svg>
