<svg width="26" height="32" viewBox="0 0 26 32" fill="none" xmlns="http://www.w3.org/2000/svg">
    <path d="M14.3764 19.6744L13.4587 22.8062L15.5999 24.2975L23.5528 21.0166L23.3999 18.4813L20.3411 16.8408L14.3764 19.6744Z" fill="#523300"/>
    <path d="M17.4353 21.1657L14.3765 19.6744L20.3412 16.8408L23.4 18.4813L17.4353 21.1657Z" fill="#7D4C00"/>
    <path d="M17.4352 21.1654L14.3764 19.6741L13.4587 22.8059L15.5999 24.2972L17.4352 21.1654Z" fill="#23262A"/>
    <path d="M5.65862 17.2883L1.98804 19.0779V21.7623L11.4704 24.4467L13.3057 23.1045L11.9292 20.4201L5.65862 17.2883Z" fill="#7D4C00"/>
    <path d="M9.78802 21.7623L1.98804 19.0779V21.7623L11.4704 24.4467L9.78802 21.7623Z" fill="#523300"/>
    <path d="M11.9293 20.4199L9.78809 21.7621L11.4704 24.4465L13.3057 23.1043L11.9293 20.4199Z" fill="#23262A"/>
    <path d="M-6.00815e-05 27.4293L0.458762 24.4466L9.02345 22.657L11.0117 23.4027L13.4587 25.3414L2.59996 29.4639L-6.00815e-05 27.4293Z" fill="#523300"/>
    <path d="M26.0001 27.4293L25.5412 24.4466L16.9765 22.657L14.9883 23.4027L12.5413 25.3414L23.4 29.4639L26.0001 27.4293Z" fill="#523300"/>
    <path d="M2.90604 26.0871L0.458984 24.4466L9.02368 22.657L11.0119 23.4027L2.90604 26.0871Z" fill="#7D4C00"/>
    <path d="M23.0942 26.0871L25.5413 24.4466L16.9766 22.657L14.9883 23.4027L23.0942 26.0871Z" fill="#7D4C00"/>
    <path d="M2.6 29.464L0 27.4293L0.458823 24.4466L2.90588 26.0871L2.6 29.464Z" fill="#A86400"/>
    <path d="M23.4 29.464L26 27.4292L25.5412 24.4465L23.0941 26.087L23.4 29.464Z" fill="#A86400"/>
    <path d="M16.2458 32H9.82227V28.7191L11.1987 24.9907H14.7164L16.0928 28.7191L16.2458 32Z" fill="#7D4C00"/>
    <path d="M16.0928 28.7189H9.82227V31.9999H16.2458L16.0928 28.7189Z" fill="#A86400"/>
    <path d="M13.0001 15.8083C13.306 16.8659 11.9295 18.1944 12.2354 18.7772C12.8471 19.0892 15.4471 17.4487 15.4471 15.6591C15.4471 14.6046 15.2942 14.3033 14.2236 13.2594C13.1977 12.2589 13.1387 11.258 13.9177 9.99211C14.3766 9.2465 13.9177 6.8603 13.6118 8.35165C13.3123 9.81236 11.1648 10.1412 11.1648 12.08C11.1648 14.1814 12.5891 14.3874 13.0001 15.8083Z" fill="#AAB0BA"/>
    <path d="M18.1295 7.93743C18.4354 8.99507 17.0589 10.3236 17.3648 10.9064C17.9765 11.2184 20.5765 9.5779 20.5765 7.7883C20.5765 6.73376 20.4236 6.43244 19.353 5.38851C18.3271 4.38809 18.2681 3.38719 19.0471 2.12126C19.5059 1.37565 19.0471 -1.01055 18.7412 0.480799C18.4416 1.94151 16.2942 2.27039 16.2942 4.20913C16.2942 6.31058 17.7185 6.51651 18.1295 7.93743Z" fill="#AAB0BA"/>
    <path d="M6.81185 10.9203C7.11774 11.978 5.74127 13.3065 6.04715 13.8893C6.65891 14.2013 9.25891 12.5608 9.25891 10.7712C9.25891 9.71667 9.10597 9.41535 8.03538 8.37142C7.00942 7.371 6.95048 6.3701 7.7295 5.10417C8.18832 4.35856 7.7295 1.97236 7.42362 3.46371C7.12402 4.92442 4.97656 5.2533 4.97656 7.19204C4.97656 9.29349 6.4009 9.49942 6.81185 10.9203Z" fill="#AAB0BA"/>
</svg>
