<svg width="279" height="348" viewBox="0 0 279 348" fill="none" xmlns="http://www.w3.org/2000/svg">
<ellipse cx="178.416" cy="332.347" rx="14.5" ry="11" transform="rotate(-20.2987 178.416 332.347)" fill="#23262A"/>
<ellipse cx="105.5" cy="337" rx="16.5" ry="8" transform="rotate(10.8198 105.5 337)" fill="#23262A"/>
<path fill-rule="evenodd" clip-rule="evenodd" d="M38.2822 235.321C42.2471 238.757 42.6758 244.757 39.2396 248.722C17.4423 273.873 30.303 308.351 52.2056 316.036C59.9433 318.751 70.7318 317.686 84.759 315.636C85.7839 315.486 86.828 315.33 87.8885 315.172C99.9936 313.369 114.234 311.247 126.423 313.685C131.568 314.714 134.905 319.718 133.876 324.863C132.847 330.008 127.842 333.345 122.697 332.316C113.914 330.559 102.896 332.177 89.6143 334.127C88.9183 334.229 88.216 334.332 87.5076 334.436C74.5835 336.325 58.8719 338.511 45.9149 333.964C10.8174 321.649 -5.31987 271.127 24.8813 236.278C28.3175 232.313 34.3173 231.885 38.2822 235.321Z" fill="#23262A"/>
<path d="M195.063 317.337C194.996 312.728 74.7255 298.675 75.0622 310.836C75.5609 328.843 82.2268 332.751 96.063 336.338C109.563 339.838 195.563 351.839 195.063 317.337Z" fill="#23262A"/>
<path fill-rule="evenodd" clip-rule="evenodd" d="M143.98 343.626C145.152 341.203 144.311 336.474 143.552 333.86C141.429 328.008 126.142 329.471 124.868 333.86C124.298 335.821 124.577 337.978 125.249 339.893C124.841 341.093 125.143 342.794 126.152 344.319C127.584 346.481 129.895 347.472 131.315 346.532C131.558 346.371 131.759 346.164 131.919 345.921C131.928 345.922 131.938 345.922 131.948 345.923C132.648 347.148 134.226 348.001 136.061 348.001C138.098 348.001 139.819 346.949 140.373 345.505C140.844 345.636 141.353 345.653 141.862 345.531C142.881 345.288 143.652 344.547 143.98 343.626Z" fill="#23262A"/>
<path d="M144.561 336.001L143.561 332.5C143.189 330.811 137.061 337 124.561 335V338.5C125.801 339.204 129.093 339.999 135.061 339.5C140.994 339.004 144.096 336.986 144.561 336.001Z" fill="#D9E366"/>
<path fill-rule="evenodd" clip-rule="evenodd" d="M155.349 343.626C154.177 341.203 155.019 336.474 155.778 333.86C157.901 328.008 173.188 329.471 174.462 333.86C175.031 335.821 174.752 337.978 174.08 339.893C174.489 341.093 174.187 342.794 173.177 344.319C171.746 346.481 169.435 347.472 168.014 346.532C167.771 346.371 167.57 346.164 167.411 345.921C167.401 345.922 167.392 345.922 167.382 345.923C166.681 347.148 165.103 348.001 163.269 348.001C161.232 348.001 159.511 346.949 158.956 345.505C158.486 345.636 157.976 345.653 157.468 345.531C156.449 345.288 155.678 344.547 155.349 343.626Z" fill="#23262A"/>
<path d="M154.769 336.001L155.769 332.5C156.141 330.811 162.269 337 174.769 335V338.5C173.528 339.204 170.237 339.999 164.269 339.5C158.336 339.004 155.234 336.986 154.769 336.001Z" fill="#D9E366" stroke="black"/>
<path d="M196.366 299.579C196.366 308.232 196.145 314.48 194.93 319.018C194.326 321.277 193.48 323.09 192.31 324.555C191.141 326.018 189.63 327.158 187.661 328.044C183.697 329.83 177.913 330.58 169.427 330.873C163.352 331.082 155.939 331.057 146.88 331.026C143.305 331.013 139.473 331 135.366 331C131.752 331 128.345 331.013 125.132 331.025C116.888 331.057 109.926 331.083 104.048 330.873C95.8734 330.581 89.8732 329.831 85.4932 328.038C81.1529 326.26 78.3943 323.454 76.7011 318.971C74.9931 314.449 74.3662 308.212 74.3662 299.579C74.3662 265.318 101.652 240.5 135.366 240.5C169.08 240.5 196.366 265.318 196.366 299.579Z" fill="#525962" stroke="black"/>
<path d="M182.415 334L184.915 298L175.866 261.5C175.866 275.5 153.866 293 151.366 303.5C149.366 311.9 150.748 322 150.915 331.5C152.748 333.167 158.315 336.5 165.915 336.5C173.515 336.5 180.082 334.833 182.415 334Z" fill="#525962"/>
<path d="M116.366 334L113.866 298L133.866 255.5C133.866 269.5 143.366 282 145.866 292.5C147.866 300.9 148.033 322 147.866 331.5C146.033 333.167 140.466 336.5 132.866 336.5C125.266 336.5 118.7 334.833 116.366 334Z" fill="#525962"/>
<path d="M231.639 74.0264C207.628 73.7619 176.791 90.4413 166.434 96.4882C181.778 126.204 211.725 170.978 226.592 166.212C245.177 160.254 262.961 98.7174 262.753 86.9506C262.545 75.1839 262.815 74.3698 231.639 74.0264Z" fill="#23262A"/>
<path fill-rule="evenodd" clip-rule="evenodd" d="M255.913 86.4503C256.764 87.0518 256.93 88.0489 256.833 89.2176L257.829 89.3006C257.934 88.0509 257.799 86.5591 256.49 85.6337C255.229 84.7424 253.034 84.5021 249.397 85.2211C244.425 86.2041 235.617 89.6165 227.391 93.8601C223.273 95.9849 219.283 98.3264 215.978 100.689C212.685 103.043 210.027 105.45 208.62 107.715L209.47 108.243C210.769 106.151 213.294 103.837 216.56 101.503C219.814 99.1761 223.759 96.8591 227.85 94.7488C236.043 90.5223 244.754 87.1585 249.591 86.2021C253.19 85.4906 255.014 85.8149 255.913 86.4503Z" fill="#020509" fill-opacity="0.87"/>
<path d="M96.3661 305C85.9661 302.2 77.8948 293.833 75.0615 290C73.561 296 74.5936 310 74.8661 310.5C77.8636 316.001 83.3661 318 91.8661 322C98.6661 325.2 110.699 325.333 115.866 325C121.061 326.5 125.161 326 131.561 326C137.961 326 145.561 324 148.061 322.5L147.366 302.5C144.533 301.833 136.766 300.6 128.366 301C119.966 301.4 115.199 303.5 113.866 304.5L114.366 309.5C112.699 309.167 106.766 307.8 96.3661 305Z" fill="#D9E366" stroke="black"/>
<path d="M105.366 284.249V277.108C105.366 275.962 106.322 275.051 107.466 275.121C117.859 275.762 138.187 277.5 150.866 277.5C163.159 277.5 178.284 276.138 186.124 275.261C187.318 275.128 188.366 276.058 188.366 277.259V285.696C188.366 286.721 187.597 287.58 186.576 287.672C180.547 288.219 167.369 289.141 150.866 289.5C133.853 289.87 115.813 287.418 107.262 286.256L107.096 286.234C106.103 286.099 105.366 285.251 105.366 284.249Z" fill="#D9E366" stroke="black"/>
<path d="M74.561 303C78.061 305.833 84.3599 311.6 97.8662 315.5C103.061 317 113.061 317.5 115.061 317.5" stroke="black"/>
<path d="M114.866 315C117.533 315.5 124.128 316.937 132.561 316C141.561 315 146.394 312.5 147.561 312" stroke="black"/>
<path d="M168.561 302.5C161.495 301.948 153.561 303 151.061 303.5C149.561 312.5 150.061 318.496 150.561 322.496C151.061 322.829 155.171 324.827 161.866 325.913C168.561 327 174.866 326.913 179.366 325.913C181.061 325.537 183.061 325.5 183.061 324.5C183.061 324 185.066 323.113 187.866 321.913C190.666 320.713 194.894 317.5 196.561 316C197.561 308.5 196.366 300.163 196.366 300.163C196.366 300.163 188.032 306.247 184.366 307.413C182.699 306.413 179.366 303.344 168.561 302.5Z" fill="#D9E366" stroke="black"/>
<path d="M150.366 312.5C152.366 313.833 159.361 317.4 168.561 317C177.761 316.6 182.061 314.5 183.561 314" stroke="black"/>
<path d="M197.061 309C195.061 312 189.061 316 183.561 317" stroke="black"/>
<path d="M157.823 265.002C146.324 265.993 134.736 263.309 124.908 259.533C115.438 255.895 107.633 251.257 103.159 247.967C110.158 241.91 129.155 230.5 152.866 230.5C176.613 230.5 194.344 238.429 200.659 242.624C195.574 249.509 180.387 263.057 157.823 265.002Z" fill="#525962" stroke="black"/>
<path d="M113.866 298L116.366 334C118.7 334.833 125.266 336.5 132.866 336.5C140.466 336.5 146.033 333.167 147.866 331.5C148.033 322 147.866 300.9 145.866 292.5C143.366 282 133.866 269.5 133.866 255.5" stroke="black" stroke-linecap="round"/>
<path d="M184.915 298L182.415 334C180.082 334.833 173.515 336.5 165.915 336.5C158.315 336.5 152.748 333.167 150.915 331.5C150.748 322 149.366 311.9 151.366 303.5C153.866 293 175.866 275.5 175.866 261.5" stroke="black" stroke-linecap="round"/>
<path d="M13.9058 216.5C29.4057 229.5 76.739 238.833 97.9057 241C151.906 241 213.406 216.5 235.406 205C257.406 193.499 278.906 148.5 272.406 131C265.906 113.499 249.406 120 189.906 123.5C130.406 127 126.036 118.999 91.4056 119C57.4058 119 43.6857 118.72 17.9054 144.5C-7.59426 170 -0.27397 204.607 13.9058 216.5Z" fill="black" stroke="black" stroke-linecap="round"/>
<path d="M245.175 182.771C254.066 231 189.031 257 148.795 257C108.558 257 46.333 231 52.4144 182.771C58.4958 134.542 95.5654 95 148.795 95C202.024 95 245.175 141.775 245.175 182.771Z" fill="#23262A"/>
<ellipse cx="13.9774" cy="16.0012" rx="13.9774" ry="16.0012" transform="matrix(0.999996 -0.00287334 -0.00334695 0.999994 190.475 159.65)" fill="#FFAA33"/>
<ellipse cx="11.2184" cy="12.9998" rx="11.2184" ry="12.9998" transform="matrix(0.999996 -0.00287329 -0.0033469 0.999994 193.224 162.644)" fill="#020509" fill-opacity="0.87"/>
<ellipse cx="196.672" cy="168.763" rx="3" ry="3" fill="white"/>
<ellipse cx="13.9774" cy="16.0012" rx="13.9774" ry="16.0012" transform="matrix(0.999996 -0.00287334 -0.00334695 0.999994 88.1069 160.067)" fill="#FFAA33"/>
<ellipse cx="11.2184" cy="12.9998" rx="11.2184" ry="12.9998" transform="matrix(0.999996 -0.00287329 -0.0033469 0.999994 90.856 163.061)" fill="#020509" fill-opacity="0.87"/>
<ellipse cx="94.3042" cy="169.18" rx="3" ry="3" fill="white"/>
<path d="M236.906 120.5C235.072 104.833 235 74 220 56" stroke="black" stroke-linecap="round"/>
<path d="M147.406 15.5C50.2058 15.5 32.9058 92.1667 36.4058 130.5H157.406C174.206 130.5 221.072 126.833 242.406 125C246.906 78.5 226.906 15.5 147.406 15.5Z" fill="#C30000" stroke="black" stroke-linecap="round"/>
<path d="M46.4059 124C45.4059 104.5 52.4 59.6 82 42" stroke="black" stroke-linecap="round"/>
<path d="M222.406 122C223.572 93.8333 215.906 33.8 175.906 19" stroke="black" stroke-linecap="round"/>
<path d="M231.906 120C231.906 83.5 226.906 36.5 174.906 18.5" stroke="black" stroke-linecap="round"/>
<path d="M114 139C83.7036 136.456 62.5 147.5 55.5 165.5C42.0005 154 31.9991 142 49.9997 131.499C62.0876 124.448 112.574 129 128.574 131.5H201.574C242.499 122 258.199 130.4 264.999 139.999C271.799 149.599 252.166 171.833 244.999 177C243.999 164 237.499 146.454 230.499 142C211.013 129.599 179.5 144.499 114 139Z" fill="black"/>
<path d="M57.5 80.5001C54.7 78.5001 48.5 75.9999 44.5 77.5001C46.1667 78.5001 50.5 80.8001 52.5 82.0001C54.5 83.2001 59.8333 92.3333 62 96.5C62.5 94 63.5 88.7001 63.5 87.5001C63.5 86.0001 61 83.0001 57.5 80.5001Z" fill="black"/>
<path fill-rule="evenodd" clip-rule="evenodd" d="M97.1696 120.282C88.5619 136.434 78.4417 152.293 69.3302 161.101L97.1696 120.282ZM33.8266 77.2474C12.3358 79.3458 12.4359 81.1216 13.0084 91.2806C13.0143 91.3848 13.0202 91.4899 13.0261 91.5958C13.409 98.4164 21.0732 121.514 31.1473 140.589C33.3219 139.678 36.4411 139.437 39.8925 139.171C47.5026 138.584 56.7275 137.872 61.0002 129.575C62.9619 125.765 62.7563 122.027 62.3376 114.416C62.2281 112.424 62.1039 110.167 62.0002 107.575C61.7385 101.031 62.5002 90.0747 62.5002 90.0747C61.0799 81.553 55.6251 75.7208 33.8266 77.2474Z" fill="#23262A"/>
<path fill-rule="evenodd" clip-rule="evenodd" d="M19.8105 91.0186C19.1235 91.5845 18.9559 92.4016 19.0358 93.3498C19.059 93.625 18.8759 93.881 18.6032 93.9242V93.9242C18.3304 93.9673 18.072 93.7814 18.0461 93.5064C17.9403 92.3814 18.0986 91.1332 19.1747 90.2468C20.3665 89.265 22.5381 88.8636 26.2179 89.3126C31.2492 89.9266 40.2842 92.6808 48.8006 96.3068C52.8909 98.0483 56.8772 99.9975 60.258 102.018C60.495 102.16 60.5694 102.468 60.4258 102.703V102.703C60.2822 102.939 59.975 103.014 59.7379 102.872C56.409 100.883 52.4686 98.9554 48.4089 97.2269C39.9268 93.6155 30.9918 90.9026 26.0967 90.3053C22.4552 89.8609 20.6602 90.3186 19.8105 91.0186Z" fill="#020509" fill-opacity="0.87"/>
<path d="M62.4055 120C59.0721 89.6667 66.6 27 127 17" stroke="black" stroke-linecap="round"/>
<path d="M153 217.5L153 222.307M153 222.307C149.217 225.32 134.087 229.547 124 220.566M153 222.307C156.732 225.378 173.93 229.547 182 220.566" stroke="black"/>
<path fill-rule="evenodd" clip-rule="evenodd" d="M160.154 203.944C163.548 204.031 166.154 203.96 166.154 202.444C166.154 199.959 160.334 197.944 153.154 197.944C145.974 197.944 140.154 199.959 140.154 202.444C140.154 203.96 142.759 204.031 146.154 203.944C147.347 203.944 148.312 205.31 149.321 206.739C150.427 208.304 151.585 209.944 153.154 209.944C154.722 209.944 155.881 208.304 156.986 206.739C157.995 205.31 158.961 203.944 160.154 203.944Z" fill="#F25C5C"/>
<path d="M153.033 250C50.2137 250 49.6534 184.743 56.0546 155.304L65.0001 149.5C60.0758 202 73.8503 244.659 153.033 244.659C232.216 244.659 239.402 180.271 233 142L241.701 150.397C247.117 189.159 236.746 250 153.033 250Z" fill="black"/>
<path fill-rule="evenodd" clip-rule="evenodd" d="M41.9428 213.511C85.2 199.612 110.467 201.833 121.368 203.624C121.641 203.668 121.825 203.926 121.781 204.198C121.736 204.471 121.479 204.655 121.206 204.61C110.46 202.846 85.3536 200.613 42.2487 214.463C41.9858 214.547 41.7042 214.403 41.6197 214.14C41.5352 213.877 41.6799 213.595 41.9428 213.511Z" fill="#020509" fill-opacity="0.87"/>
<path fill-rule="evenodd" clip-rule="evenodd" d="M110.818 216.823C113.004 216.234 114.786 215.753 116.084 215.319C116.346 215.232 116.629 215.373 116.717 215.635C116.804 215.897 116.663 216.18 116.401 216.268C115.068 216.713 113.253 217.204 111.036 217.802C100.273 220.709 80.0411 226.173 59.4894 241.514C59.2682 241.679 58.9549 241.634 58.7897 241.412C58.6245 241.191 58.67 240.878 58.8913 240.713C79.6206 225.239 100.088 219.718 110.818 216.823Z" fill="#020509" fill-opacity="0.87"/>
<path fill-rule="evenodd" clip-rule="evenodd" d="M39.914 230.677C68.9542 215.961 98.9953 210.611 111.049 209.695C111.324 209.675 111.564 209.881 111.585 210.156C111.606 210.432 111.4 210.672 111.124 210.693C99.177 211.6 69.2683 216.923 40.366 231.569C40.1197 231.694 39.8188 231.595 39.694 231.349C39.5691 231.103 39.6676 230.802 39.914 230.677Z" fill="#020509" fill-opacity="0.87"/>
<path fill-rule="evenodd" clip-rule="evenodd" d="M260.299 213.511C217.042 199.612 191.775 201.833 180.874 203.624C180.601 203.668 180.417 203.926 180.462 204.198C180.506 204.471 180.763 204.655 181.036 204.61C191.782 202.846 216.889 200.613 259.993 214.463C260.256 214.547 260.538 214.403 260.622 214.14C260.707 213.877 260.562 213.595 260.299 213.511Z" fill="#020509" fill-opacity="0.87"/>
<path fill-rule="evenodd" clip-rule="evenodd" d="M191.424 216.823C189.238 216.234 187.456 215.753 186.158 215.319C185.896 215.232 185.613 215.373 185.525 215.635C185.438 215.897 185.579 216.18 185.841 216.268C187.175 216.713 188.989 217.204 191.206 217.802C201.969 220.709 222.201 226.173 242.753 241.514C242.974 241.679 243.287 241.634 243.453 241.412C243.618 241.191 243.572 240.878 243.351 240.713C222.622 225.239 202.154 219.718 191.424 216.823Z" fill="#020509" fill-opacity="0.87"/>
<path fill-rule="evenodd" clip-rule="evenodd" d="M262.328 230.677C233.288 215.961 203.247 210.611 191.193 209.695C190.918 209.675 190.678 209.881 190.657 210.156C190.636 210.432 190.842 210.672 191.118 210.693C203.065 211.6 232.974 216.923 261.876 231.569C262.123 231.694 262.423 231.595 262.548 231.349C262.673 231.103 262.575 230.802 262.328 230.677Z" fill="#020509" fill-opacity="0.87"/>
<path d="M72.4055 120C69.9055 91.6667 77.2 33.8 120 29" stroke="black" stroke-linecap="round"/>
<path d="M102.837 47.625L101.966 112.022C101.927 114.893 103.013 117.665 104.99 119.747L108.153 123.076C110.23 125.262 113.113 126.5 116.128 126.5H189.292C191.945 126.5 194.508 125.541 196.51 123.801L201.124 119.789C203.526 117.7 204.906 114.672 204.906 111.488V50.8271C204.906 47.7506 203.617 44.8147 201.353 42.7318L161.927 6.45969C157.898 2.75321 151.757 2.57337 147.518 6.03775L106.874 39.2564C104.358 41.3127 102.88 44.376 102.837 47.625Z" fill="#838C9A" stroke="black" stroke-linecap="round"/>
<path d="M182.906 80C182.906 92.8943 170.239 103.5 154.406 103.5C138.573 103.5 125.906 92.8943 125.906 80C125.906 67.1057 138.573 56.5 154.406 56.5C170.239 56.5 182.906 67.1057 182.906 80Z" fill="#ECEEF0" stroke="black"/>
<path d="M144.906 76C144.906 77.5591 144.431 78.9514 143.688 79.9426C142.944 80.9337 141.956 81.5 140.906 81.5C139.856 81.5 138.867 80.9337 138.124 79.9426C137.38 78.9514 136.906 77.5591 136.906 76C136.906 74.4409 137.38 73.0486 138.124 72.0574C138.867 71.0663 139.856 70.5 140.906 70.5C141.956 70.5 142.944 71.0663 143.688 72.0574C144.431 73.0486 144.906 74.4409 144.906 76Z" fill="#CBCFD5" stroke="black"/>
<path d="M158.906 70C158.906 71.5591 158.431 72.9514 157.688 73.9426C156.944 74.9337 155.956 75.5 154.906 75.5C153.856 75.5 152.867 74.9337 152.124 73.9426C151.38 72.9514 150.906 71.5591 150.906 70C150.906 68.4409 151.38 67.0486 152.124 66.0574C152.867 65.0663 153.856 64.5 154.906 64.5C155.956 64.5 156.944 65.0663 157.688 66.0574C158.431 67.0486 158.906 68.4409 158.906 70Z" fill="#CBCFD5" stroke="black"/>
<path d="M173.906 76C173.906 77.5591 173.431 78.9514 172.688 79.9426C171.944 80.9337 170.956 81.5 169.906 81.5C168.856 81.5 167.867 80.9337 167.124 79.9426C166.38 78.9514 165.906 77.5591 165.906 76C165.906 74.4409 166.38 73.0486 167.124 72.0574C167.867 71.0663 168.856 70.5 169.906 70.5C170.956 70.5 171.944 71.0663 172.688 72.0574C173.431 73.0486 173.906 74.4409 173.906 76Z" fill="#CBCFD5" stroke="black"/>
<path d="M168.506 93.7C167.929 94.4693 167.361 94.7239 166.722 94.7424C166.025 94.7626 165.196 94.5046 164.099 94.0942C163.892 94.0167 163.678 93.9347 163.456 93.8498C161.372 93.0525 158.62 92 154.905 92C151.301 92 148.435 92.8942 146.262 93.5721C145.967 93.6643 145.684 93.7524 145.414 93.8338C144.262 94.1813 143.408 94.3825 142.751 94.3224C142.438 94.2938 142.185 94.2064 141.97 94.054C141.753 93.9 141.544 93.6584 141.353 93.2764C141.075 92.7198 141.107 91.7977 141.587 90.6273C142.058 89.4802 142.923 88.1904 144.134 86.9785C146.557 84.5564 150.309 82.5 154.905 82.5C159.235 82.5 163.114 84.7495 165.674 87.3508C166.953 88.6499 167.88 90.014 168.365 91.1907C168.867 92.407 168.837 93.2587 168.506 93.7Z" fill="#CBCFD5" stroke="black"/>
<path d="M117.72 46.4637L122.269 54.9939C123.403 57.1197 126.162 57.7907 128.303 56.6853C133.795 53.8492 142.95 50.5 153.406 50.5C164.095 50.5 174.248 54.4121 180.371 57.6243C182.549 58.7672 185.351 57.9834 186.395 55.756L190.714 46.5415C191.429 45.0162 191.122 43.1961 189.813 42.1368C183.736 37.2221 170.647 30 153.406 30C136.268 30 123.997 37.1359 118.4 42.0483C117.139 43.1547 116.93 44.9837 117.72 46.4637Z" fill="#E0E3E6" stroke="black" stroke-linecap="round"/>
<circle cx="110.906" cy="50.5" r="3" fill="#ECEEF0" stroke="black"/>
<circle cx="112.906" cy="110.5" r="3" fill="#ECEEF0" stroke="black"/>
<circle cx="194.906" cy="111.5" r="3" fill="#ECEEF0" stroke="black"/>
<circle cx="196.906" cy="50.5" r="3" fill="#ECEEF0" stroke="black"/>
<path fill-rule="evenodd" clip-rule="evenodd" d="M1 180.905C6.85652 167.732 23.3662 143.107 48.3192 138.501C67.318 134.993 91.9554 135.757 115.839 136.498C132.811 137.024 149.403 137.539 163.319 136.501C172.176 135.84 181.837 134.654 191.553 133.462C218.587 130.146 246.049 126.776 257.819 134.5C268.043 141.21 269.08 152.817 268.105 162.149C272.947 149.947 274.981 138.167 272.319 131C267.257 117.372 256.131 118.299 223.356 121.029C214.044 121.805 202.984 122.726 189.819 123.501C153.487 125.638 137.711 123.487 123.049 121.488C113.699 120.213 104.803 119 91.3191 119C90.955 119 90.5932 119 90.2337 119C57.024 118.997 43.323 118.996 17.8189 144.5C6.54746 155.772 1.68851 168.823 1 180.905Z" fill="#838C9A"/>
<path d="M48.3192 138.501L48.41 138.992L48.41 138.992L48.3192 138.501ZM1 180.905L0.50081 180.877L1.45688 181.108L1 180.905ZM115.839 136.498L115.854 135.998L115.854 135.998L115.839 136.498ZM163.319 136.501L163.356 136.999L163.356 136.999L163.319 136.501ZM191.553 133.462L191.614 133.959L191.614 133.959L191.553 133.462ZM257.819 134.5L258.094 134.082L258.094 134.082L257.819 134.5ZM268.105 162.149L267.608 162.097L268.57 162.334L268.105 162.149ZM272.319 131L271.85 131.174L271.85 131.174L272.319 131ZM223.356 121.029L223.315 120.531L223.356 121.029ZM189.819 123.501L189.79 123.001L189.79 123.001L189.819 123.501ZM123.049 121.488L122.981 121.983L122.981 121.983L123.049 121.488ZM91.3191 119L91.3191 118.5L91.3191 119ZM90.2337 119L90.2336 119.5L90.2337 119ZM17.8189 144.5L18.1724 144.854L18.1724 144.854L17.8189 144.5ZM48.2284 138.009C35.6138 140.338 25.1591 147.721 17.1363 156.146C9.11301 164.571 3.49132 174.071 0.543118 180.702L1.45688 181.108C4.3652 174.567 9.92664 165.167 17.8605 156.835C25.7951 148.503 36.0716 141.27 48.41 138.992L48.2284 138.009ZM115.854 135.998C91.9892 135.258 67.2914 134.489 48.2284 138.009L48.41 138.992C67.3446 135.497 91.9216 136.256 115.823 136.998L115.854 135.998ZM163.282 136.002C149.397 137.038 132.834 136.525 115.854 135.998L115.823 136.998C132.788 137.524 149.408 138.04 163.356 136.999L163.282 136.002ZM191.493 132.966C181.773 134.158 172.125 135.342 163.282 136.002L163.356 136.999C172.228 136.337 181.901 135.15 191.614 133.959L191.493 132.966ZM258.094 134.082C255.068 132.097 251.066 130.843 246.378 130.119C241.685 129.394 236.272 129.195 230.398 129.341C218.653 129.633 205.003 131.308 191.493 132.966L191.614 133.959C205.138 132.299 218.736 130.632 230.423 130.341C236.265 130.196 241.613 130.395 246.225 131.107C250.841 131.82 254.686 133.042 257.545 134.918L258.094 134.082ZM268.602 162.201C269.582 152.825 268.565 140.954 258.094 134.082L257.545 134.918C267.521 141.465 268.578 152.809 267.608 162.097L268.602 162.201ZM268.57 162.334C271.001 156.206 272.733 150.172 273.521 144.759C274.307 139.354 274.16 134.522 272.788 130.826L271.85 131.174C273.14 134.646 273.307 139.287 272.531 144.615C271.757 149.933 270.051 155.89 267.64 161.965L268.57 162.334ZM272.788 130.826C271.501 127.36 269.811 124.776 267.452 122.916C265.095 121.058 262.114 119.959 258.305 119.386C250.721 118.244 239.671 119.168 223.315 120.531L223.398 121.527C239.816 120.16 250.717 119.255 258.156 120.375C261.858 120.932 264.656 121.986 266.833 123.702C269.008 125.416 270.607 127.826 271.85 131.174L272.788 130.826ZM223.315 120.531C214.003 121.307 202.948 122.227 189.79 123.001L189.849 124C203.02 123.225 214.086 122.303 223.398 121.527L223.315 120.531ZM189.79 123.001C153.497 125.136 137.755 122.988 123.116 120.992L122.981 121.983C137.667 123.985 153.476 126.139 189.849 124L189.79 123.001ZM123.116 120.992C113.762 119.717 104.839 118.5 91.3191 118.5L91.3191 119.5C104.768 119.5 113.636 120.709 122.981 121.983L123.116 120.992ZM91.3191 118.5C90.955 118.5 90.5932 118.5 90.2337 118.5L90.2336 119.5C90.5931 119.5 90.9549 119.5 91.3191 119.5L91.3191 118.5ZM90.2337 118.5C73.6509 118.499 61.8431 118.493 50.9947 121.706C40.1204 124.926 30.2494 131.363 17.4653 144.147L18.1724 144.854C30.8926 132.134 40.6241 125.819 51.2787 122.665C61.9593 119.502 73.6068 119.499 90.2336 119.5L90.2337 118.5ZM17.4653 144.147C6.10307 155.509 1.19597 168.678 0.50081 180.877L1.49919 180.934C2.18105 168.968 6.99184 156.035 18.1724 144.854L17.4653 144.147Z" fill="black"/>
</svg>
